<?xml version="1.0" encoding="UTF-8"?><svg id="ELEMENTS" xmlns="http://www.w3.org/2000/svg" viewBox="0 0 47.43 47.43"><defs><style>.cls-1{fill:#f5f5f5;}.cls-2{fill:#0c1828;}</style></defs><rect class="cls-1" width="47.43" height="47.43" rx="8.47" ry="8.47"/><path class="cls-2" d="M23.71,9.85c-7.66,0-13.86,6.21-13.86,13.86s6.21,13.86,13.86,13.86,13.86-6.21,13.86-13.86-6.21-13.86-13.86-13.86Zm6.38,20.03c-.28,.42-.76,.55-1.18,.28-3.26-2.01-7.35-2.43-12.2-1.32-.49,.14-.9-.21-1.04-.62-.14-.49,.21-.9,.62-1.04,5.27-1.18,9.84-.69,13.45,1.52,.49,.21,.55,.76,.35,1.18Zm1.66-3.81c-.35,.49-.97,.69-1.46,.35-3.74-2.29-9.43-2.98-13.79-1.59-.55,.14-1.18-.14-1.32-.69-.14-.55,.14-1.18,.69-1.32,5.06-1.52,11.3-.76,15.6,1.87,.42,.21,.62,.9,.28,1.39Zm.14-3.88c-4.44-2.63-11.85-2.91-16.08-1.59-.69,.21-1.39-.21-1.59-.83-.21-.69,.21-1.39,.83-1.59,4.92-1.46,13.03-1.18,18.16,1.87,.62,.35,.83,1.18,.49,1.8-.35,.49-1.18,.69-1.8,.35Z"/></svg>