<?xml version="1.0" encoding="UTF-8"?><svg id="ELEMENTS" xmlns="http://www.w3.org/2000/svg" viewBox="0 0 47.43 47.43"><defs><style>.cls-1{fill:#f5f5f5;}.cls-2{fill:#0c1828;}</style></defs><rect class="cls-1" width="47.43" height="47.43" rx="8.47" ry="8.47"/><path class="cls-2" d="M13.03,17.13c.03-.34-.1-.68-.35-.91l-2.61-3.15v-.47h8.12l6.27,13.76,5.52-13.76h7.74v.47l-2.24,2.14c-.19,.15-.29,.39-.25,.63v15.75c-.04,.24,.06,.48,.25,.63l2.18,2.14v.47h-10.98v-.47l2.26-2.2c.22-.22,.22-.29,.22-.63v-12.73l-6.29,15.97h-.85l-7.32-15.97v10.7c-.06,.45,.09,.9,.41,1.23l2.94,3.57v.47H9.71v-.47l2.94-3.57c.31-.33,.46-.78,.38-1.23v-12.38Z"/></svg>