<?xml version="1.0" standalone="no"?>
<!DOCTYPE svg PUBLIC "-//W3C//DTD SVG 20010904//EN"
 "http://www.w3.org/TR/2001/REC-SVG-20010904/DTD/svg10.dtd">
<svg version="1.0" xmlns="http://www.w3.org/2000/svg"
 width="659.000000pt" height="659.000000pt" viewBox="0 0 659.000000 659.000000"
 preserveAspectRatio="xMidYMid meet">
<metadata>
Created by potrace 1.14, written by Peter Selinger 2001-2017
</metadata>
<g transform="translate(0.000000,659.000000) scale(0.100000,-0.100000)"
fill="#000000" stroke="none">
<path d="M3089 6586 c-2 -2 -40 -6 -84 -10 -44 -3 -96 -9 -115 -11 -82 -13
-275 -47 -281 -50 -3 -2 -21 -7 -40 -10 -48 -10 -50 -10 -89 -22 -185 -55
-256 -79 -262 -88 -4 -5 -8 -6 -8 -1 0 5 -6 4 -12 -1 -7 -6 -31 -16 -53 -23
-35 -11 -105 -41 -225 -98 -57 -27 -262 -142 -307 -173 -23 -16 -44 -29 -47
-29 -3 0 -14 -6 -23 -14 -10 -8 -63 -48 -118 -89 -186 -138 -389 -330 -520
-492 -16 -20 -35 -42 -40 -49 -6 -6 -34 -42 -63 -81 -28 -38 -55 -74 -60 -80
-15 -20 -99 -151 -112 -175 -7 -14 -16 -27 -19 -30 -3 -3 -24 -39 -45 -80 -22
-41 -52 -98 -67 -126 -16 -28 -25 -54 -22 -58 4 -3 1 -6 -5 -6 -7 0 -12 -7
-12 -15 0 -8 -9 -30 -20 -50 -11 -19 -19 -36 -19 -38 0 -1 -4 -13 -9 -27 -64
-169 -86 -235 -116 -341 -33 -117 -39 -140 -51 -207 -3 -15 -8 -38 -10 -52 -3
-14 -7 -36 -9 -50 -11 -65 -27 -169 -31 -205 -3 -22 -7 -150 -9 -285 -3 -248
6 -374 40 -565 9 -49 17 -99 19 -110 14 -91 93 -354 152 -505 46 -118 160
-354 195 -403 11 -15 16 -27 11 -27 -4 0 -3 -4 2 -8 13 -9 34 -42 41 -64 4
-10 10 -18 15 -18 5 0 9 -7 9 -15 0 -8 4 -15 9 -15 5 0 12 -11 15 -25 4 -14
11 -25 16 -25 5 0 17 -14 25 -30 9 -17 22 -39 30 -48 83 -104 105 -133 105
-137 0 -3 10 -16 23 -29 12 -13 47 -52 77 -86 73 -82 179 -189 249 -249 53
-47 66 -58 121 -104 20 -16 140 -106 208 -154 12 -9 22 -19 22 -22 0 -3 -26
-14 -57 -25 -344 -113 -409 -561 -113 -776 31 -23 82 -50 103 -56 4 -1 8 -2
10 -4 15 -12 269 -15 1707 -17 1060 -2 1674 0 1690 6 14 6 41 12 61 15 128 19
277 168 317 318 15 54 12 177 -5 218 -8 19 -14 36 -13 38 4 9 -46 97 -71 123
-16 17 -29 36 -29 42 0 6 -3 8 -6 5 -3 -3 -17 5 -31 18 -14 13 -52 36 -84 51
-32 16 -59 31 -59 36 0 4 11 13 25 19 14 6 25 15 25 20 0 4 4 8 10 8 5 0 31
16 57 36 27 20 61 45 77 57 16 12 40 31 52 42 13 11 38 31 55 45 65 50 254
235 334 326 28 32 58 66 68 76 9 10 17 20 17 23 0 3 20 30 45 61 56 68 185
260 185 274 0 5 5 10 10 10 6 0 10 6 10 14 0 8 3 16 8 18 16 7 158 294 207
418 66 169 122 346 142 449 2 14 6 27 8 30 3 6 38 200 50 281 14 98 20 215 20
405 0 227 -7 322 -30 460 -3 17 -8 46 -11 65 -3 19 -10 55 -15 80 -5 25 -11
57 -14 73 -2 15 -6 31 -9 36 -3 4 -8 22 -11 39 -15 87 -106 357 -165 488 -41
92 -159 323 -170 334 -3 3 -23 34 -44 70 -22 36 -44 68 -50 72 -6 4 -7 8 -3 8
4 0 -4 12 -18 27 -14 15 -25 33 -25 40 0 6 -3 13 -7 15 -5 2 -28 30 -53 63
-25 33 -48 62 -52 63 -5 2 -8 8 -8 13 0 5 -8 17 -17 27 -10 10 -47 51 -83 92
-86 97 -226 232 -325 315 -108 90 -114 95 -121 95 -2 0 -14 8 -24 18 -11 10
-53 40 -92 67 -40 26 -91 60 -113 75 -22 15 -74 44 -115 66 -41 21 -77 41 -80
44 -10 11 -189 94 -292 135 -127 52 -266 97 -403 132 -107 27 -107 27 -175 38
-48 8 -72 12 -105 19 -12 2 -48 7 -80 11 -33 4 -71 9 -85 12 -29 5 -506 14
-511 9z"/>
</g>
</svg>
