<?xml version="1.0" encoding="UTF-8"?><svg id="ELEMENTS" xmlns="http://www.w3.org/2000/svg" viewBox="0 0 47.43 47.43"><defs><style>.cls-1{fill:#f5f5f5;}.cls-2{fill:#0c1828;}</style></defs><rect class="cls-1" width="47.43" height="47.43" rx="8.47" ry="8.47"/><g><path class="cls-2" d="M39.15,14.91c-.37-1.4-1.46-2.49-2.85-2.87-2.51-.68-12.59-.68-12.59-.68,0,0-10.08,0-12.59,.68-1.39,.37-2.48,1.47-2.85,2.87-.67,2.53-.67,7.81-.67,7.81,0,0,0,5.28,.67,7.81,.37,1.4,1.46,2.49,2.85,2.87,2.51,.68,12.59,.68,12.59,.68,0,0,10.08,0,12.59-.68,1.39-.37,2.48-1.47,2.85-2.87,.67-2.53,.67-7.81,.67-7.81,0,0,0-5.28-.67-7.81Z"/><polygon class="cls-1" points="20.42 27.5 20.42 17.92 28.84 22.71 20.42 27.5"/></g></svg>