<?xml version="1.0" encoding="UTF-8"?><svg id="ELEMENTS" xmlns="http://www.w3.org/2000/svg" viewBox="0 0 47.43 47.43"><defs><style>.cls-1{fill:#f5f5f5;}.cls-2{fill:#0c1828;}</style></defs><rect class="cls-1" width="47.43" height="47.43" rx="8.47" ry="8.47"/><path class="cls-2" d="M34.47,13.88c-2.04-.94-4.19-1.6-6.39-1.98-.28,.49-.6,1.15-.82,1.68-2.35-.35-4.74-.35-7.09,0-.25-.57-.53-1.14-.84-1.68-2.21,.37-4.36,1.04-6.4,1.98-4.04,6.02-5.13,11.89-4.58,17.67,2.37,1.76,5.02,3.1,7.85,3.96,.64-.86,1.2-1.77,1.68-2.73-.92-.34-1.8-.77-2.65-1.26,.22-.17,.43-.33,.64-.5,4.97,2.35,10.73,2.35,15.69,0,.21,.17,.43,.34,.65,.5-.84,.5-1.73,.93-2.65,1.27,.48,.95,1.05,1.86,1.68,2.72,2.82-.86,5.48-2.2,7.85-3.96,.64-6.71-1.1-12.53-4.61-17.69Zm-15.91,14.13c-1.53,0-2.79-1.4-2.79-3.12s1.23-3.13,2.79-3.13,2.8,1.4,2.79,3.12c-.01,1.72-1.23,3.13-2.79,3.13Zm10.3,0c-1.53,0-2.79-1.4-2.79-3.12s1.23-3.13,2.79-3.13,2.8,1.4,2.79,3.12c-.02,1.72-1.23,3.13-2.79,3.13Z"/></svg>