<?xml version="1.0" encoding="UTF-8"?><svg id="Layer_1" xmlns="http://www.w3.org/2000/svg" viewBox="0 0 187.16 139.6"><defs><style>.cls-1{fill:#ff5a23;}</style></defs><path class="cls-1" d="M36.28,139.55c.25,.01,.5,.03,.75,.05,1.7,.06,3.13-.18,4.24-.69-1.12,.51-2.54,.75-4.24,.69-.25-.02-.5-.03-.75-.05Z"/><path class="cls-1" d="M80,38.75c-.04-.65-.1-1.3-.92-1.53,0,0,0,0,0,0,.83,.23,.89,.88,.93,1.53Z"/><path class="cls-1" d="M80.42,87.52c-.22-2.74-.2-5.49-.28-8.24-.04-1.2,.07-2.4,1.61-2.43,1.53-.03,1.21,1.32,1.29,2.22,.23,2.61,.46,5.23,.53,7.84,.06,2.18,.9,2.4,2.84,1.8,7.89-2.46,7.98-2.41,7.46-10.72-1.25-20.19-3.52-40.29-5.33-60.43-.21-2.32-1-3.29-3.44-3.2-4.99,.18-10,.29-14.99,.06-3-.14-3.51,1.02-3.41,3.69,.71,18.35,1.26,36.7,1.91,55.05,.15,4.15,.47,8.3,.71,12.45-2.23-6.08-4.07-12.18-5.36-18.39-.69-3.3-2.07-4.44-5.32-3.92-1.12,.18-2.95,1.2-3.45-.89-.5-2.11,1.56-2.45,2.78-2.87,2.55-.86,4.16-2.74,4.83-4.96,1.95-6.53,2.21-13.29,.79-19.95-1.9-8.83-5.67-16.43-15.16-19.37-3.78-1.17-7.7-.53-11.56-.58-7.19-.08-7.23-.02-6.11,7.05,2.17,13.67,5.29,27.17,6.9,40.95,.97,8.3,3.41,16.42,4.93,24.66,1.55,8.43,1.41,8.46,9.99,7.8,.25-.02,.5-.06,.75-.08,1.62-.1,2.22-.28,1.69-2.46-1.98-8.21-3.5-16.53-5.19-24.81,3.29,7.45,5.71,15.09,7.17,23,.48,2.59,1.79,3.73,4.66,3.33,5.45-.76,10.82-1.79,16.17-3.03,2.26-.52,2.75-1.54,2.58-3.6Zm-28.18-35.33c-.59,1.03-1.46,1.25-2.53,1.12-1.24-.15-1.08-1.23-1.22-2.01-.45-2.45-.88-4.91-1.15-7.38-.1-.97-.85-2.42,.79-2.82,1.3-.32,2.46,.28,3.2,1.44,1.24,1.96,1.41,4.21,1.72,6.32-.04,1.24-.22,2.32-.8,3.33Zm27.12,12.99c-.46-8.71-.81-17.42-1.2-26.13,0-.1,0-.19,0-.29,0-.67,.13-1.26,.92-1.53,0,0,0,0,0,0,0,0,0,0,0,0,.83,.23,.89,.88,.92,1.53,0,.09,.01,.19,.02,.28,.61,8.57,1.24,17.15,1.79,25.73,.07,1.11,.75,2.84-1.15,2.98-1.76,.13-1.25-1.64-1.3-2.56Z"/><path class="cls-1" d="M36.7,88.4c.8-4.31,.94-8.66,.68-13.04-.68-11.35-2.53-22.54-5.36-33.51-2.61-10.12-5.58-20.26-15.16-27.3,7.45-.96,11.61-5.06,13.57-11.6,.72-2.39-.01-3.19-2.49-2.89-5.85,.71-10.34,3.35-13.23,9.38-.55-2.84-1.68-4.65-3.37-6.12-.67-.59-1.34-1.34-2.24-1.1-1.03,.27-.87,1.39-1.02,2.21-.53,2.96,.29,5.63,2.28,8.33C3.69,14.14,1.62,16.22,.43,22.43,.15,23.9-.06,25.41,.01,26.89c1,20.05,6.45,38.95,15.17,56.94,1.96,4.04,4.65,7.65,8.58,10.14,6.29,3.98,11.57,1.76,12.93-5.57Z"/><path class="cls-1" d="M97.79,84.75q9.13-2.02,8.47-11.35c-.04-.62-.16-1.24-.17-1.86-.01-7.9,0-15.8,0-23.64,.65,.12,.38,1.02,.44,1.68,.74,7.95,1.55,15.9,2.15,23.86,.61,8.01,.5,7.94,8.34,6.78,2.52-.37,3.54-1.32,3.7-4.02,.56-9.47,1.42-18.91,2.19-28.37,.81-10.07,1.56-20.16,2.51-30.22,.26-2.74-.61-3.56-3.24-3.35-2.48,.21-5,.25-7.48,.05-2.63-.21-3.13,.9-2.98,3.26,.39,6.23,.63,12.47,.82,18.7,.12,3.93,.02,7.87,.02,11.81-2.42-7.84-2.39-15.84-3.35-23.72-1.24-10.14-1.01-10.16-11.2-10.01-.37,0-.75,.04-1.12,.01-1.61-.09-2.2,.68-2.19,2.25,.19,22.09,.38,44.19,.5,66.28,.01,2.07,.93,2.21,2.58,1.85Z"/><path class="cls-1" d="M124.64,65.55c.05,3.09,.57,6.18,1.56,9.19,.8,2.43,1.85,4.45,4.59,4.77,2.67,.32,4.4-1.29,5.87-3.3,1.83-2.5,2.84-5.39,4.04-9.26,0,3.17-.02,5.26,0,7.34,.02,1.58-.98,4.12,1.96,3.68,2.5-.37,6.35,2.51,7.35-2.36,1.3-6.35,2.66-12.69,3.57-19.1,.41-2.92,2.81-6.68,.98-8.49-1.88-1.87-5.94-.5-9.05-.54-4.69-.07-5.06,.46-4.05,5.14,.44,2.03-.32,3.75-2.19,4.09-2.35,.43-2.4-1.85-2.4-3.34,.02-4.48,.07-9.01,1.66-13.29,.68-1.85,.74-4.89,3.45-4.49,2.65,.4,2.09,3.27,2.02,5.28-.08,2.03,.5,2.69,2.58,2.22,2.55-.58,5.17-.85,7.75-1.28,1.3-.22,2.31-.63,2.37-2.29,.18-4.99,.65-10-.1-14.95-1.56-10.3-11.12-14.84-19.34-9.3-3.57,2.41-6.01,5.75-7.51,9.74-4.94,13.1-5.33,26.81-5.11,40.56Z"/><path class="cls-1" d="M124.86,113.61c-3.9,.32-7.69-.04-8.69,5.54-.55,3.1-3.8,3.36-5.28,1.01-1.74-2.76-.38-12.48,2.04-14.61,2.08-1.83,4.23-1.32,4.8,1.14,1.13,4.9,1.13,4.87,6.26,4.04,2.09-.34,4.21-.51,6.31-.8,1.11-.15,2.1-.31,2.55-1.72,1.68-5.34-.97-15.41-5.08-18.79-5.96-4.9-15.61-3.78-22.11,2.53-6.88,6.69-9.42,15.03-9.43,25.15,.25,4.71,.22,10.17,3.29,15.19,4.9,8.01,14.52,9.74,21.69,3.67,4.86-4.12,7.4-9.58,9.15-15.48,2.22-7.52,2.15-7.5-5.51-6.87Z"/><path class="cls-1" d="M185.21,14.34c-3.24,.05-6.49,.01-9.74,.01,0-.01,0-.02,0-.04-2.62,0-5.27,.22-7.86-.06-2.75-.3-3.7,.85-4.17,3.36-2.17,11.51-4.47,23-6.75,34.5-1.4,7.08-2.8,14.15-4.28,21.21-1,4.8-.81,5.01,3.9,5.51,3.72,.39,7.44,.93,11.09,1.7,2.07,.44,2.9-.17,3.45-2.08,1.41-4.91,2.88-9.8,4.47-14.66,1.98-6.05,2.04-6.03-4.05-6.75-.48-.06-.95-.32-1.43-.35-2.3-.11-2.13-1.58-1.78-3.15,.76-3.38,3.37-2.18,5.43-2.09,4.17,.19,3.31-3.42,3.99-5.53,.81-2.54-1.76-1.49-2.9-2-1.22-.55-3.78,.67-3.35-2.22,.32-2.16,.35-4.7,3.84-4.02,1.58,.31,3.23,.2,4.85,.33,1.8,.14,2.74-.61,3.1-2.42,1.28-6.35,2.61-12.69,4.01-19.02,.38-1.71-.19-2.27-1.84-2.25Z"/><path class="cls-1" d="M163.85,87.94c-7.17-1-14.33-1.82-21.59-1.91-2.47-.03-3.43,.46-3.86,3.06-2.56,15.67-5.29,31.3-8.06,46.93-.34,1.94-.06,2.79,2.08,2.71,2.99-.11,5.99-.03,8.98-.03v.03c3.12,0,6.24,0,9.36,0,1.1,0,2.28,.2,2.75-1.27,1.58-4.86,3.19-9.71,4.8-14.56,.58-1.76-.28-2.1-1.84-2.14-2.24-.06-4.47-.37-6.71-.53-1.26-.09-2.1-.37-2.01-1.97,.09-1.67,.91-2.13,2.39-2.05,1.49,.08,3,0,4.49,.17,1.76,.21,2.36-.68,2.81-2.2,1.39-4.69-2.14-3.57-4.48-3.93-1.27-.2-3.36,.65-2.89-2.06,.33-1.9,.85-3.31,3.36-2.75,2.05,.45,4.24,.29,6.29,.73,1.96,.42,2.67-.31,3.15-2.08,1.08-3.96,2.11-7.97,3.62-11.78,1.2-3.03,.27-3.96-2.65-4.36Z"/><path class="cls-1" d="M77.15,114.32c0-4.12-.09-8.25,.03-12.37,.08-2.58-.65-3.66-3.43-3.01-2.91,.68-5.89,1.15-8.86,1.47-2.5,.27-3.33,1.17-3.01,3.87,.77,6.57,1.14,13.19,1.64,19.79,.11,1.52,.18,3.39-1.76,3.58-1.98,.2-2.2-1.66-2.35-3.17-.53-5.09-1.11-10.18-1.51-15.28-.61-7.77-.55-7.78-8.47-7.58-7.71,.19-7.98,.24-6.58,7.67,1.31,6.96,1.36,14.23,4.28,20.83,3.36,7.61,11.16,10.89,20.49,8.89,6.12-1.31,9.59-6.67,9.66-14.94,.03-3.25,0-6.5,0-9.74-.04,0-.09,0-.13,0Z"/><path class="cls-1" d="M92.82,93.66c-3.32,1.08-6.62,2.25-10.01,3.05-2.21,.52-2.71,1.68-2.68,3.7,.08,5.87,.03,11.74,.03,17.61h.05c0,3.5,0,6.99,0,10.49q0,10.81,10.88,10.28c.12,0,.25-.01,.37,0,1.56,.16,2.19-.47,2.24-2.11,.43-13.72,.9-27.43,1.45-41.14,.08-2.01-.5-2.47-2.33-1.88Z"/><path class="cls-1" d="M38.7,104.07c-.25-1.33-.3-2.78-2.32-2.72-3.76,.11-7.47-.54-11.16-1.15-2.43-.4-3.1,.32-2.4,2.83,1.83,6.61,3.41,13.29,5.09,19.94,.43,1.69,1.37,3.62-1.89,3.22-1.56-.19-1.37,.96-1.29,2.01,.65,8.6,2.92,10.84,11.55,11.35,.25,.01,.5,.03,.75,.05,1.7,.06,3.13-.18,4.24-.69,.37-.17,.71-.37,1.01-.61,1.55-1.2,2.17-3.19,1.7-5.9-1.66-9.46-3.5-18.89-5.28-28.33Z"/><path class="cls-1" d="M79.08,37.22s0,0,0,0c-.79,.27-.92,.87-.92,1.53,0-.67,.13-1.26,.92-1.53Z"/></svg>